<svg width="35" height="35" viewBox="0 0 35 35" fill="none" xmlns="http://www.w3.org/2000/svg">
<g clip-path="url(#clip0_45_2960)">
<path d="M4 4H31V31H4V4Z" fill="white"/>
<path d="M4 4H31V12.1H4V4Z" fill="black"/>
<path d="M4 22.9004H31V31.0004H4V22.9004Z" fill="#006600"/>
<path d="M13.8789 25.5164L14.1067 25.6852L20.0172 12.0164C20.3589 11.9152 20.5488 11.4764 20.7386 11.0377C20.8652 10.7339 21.3714 9.56953 21.5866 8.05078C20.9861 8.76222 20.4773 9.60023 20.0805 10.5314C19.8906 10.9702 19.7008 11.4089 19.7894 11.8645L13.8789 25.5164Z" fill="black"/>
<path fill-rule="evenodd" clip-rule="evenodd" d="M21.6842 7.82324L21.6498 8.06624C21.4415 9.53617 20.9634 10.6766 20.8126 11.0363C20.8061 11.0518 20.8002 11.0659 20.7949 11.0784L20.7947 11.079L20.7928 11.0835C20.699 11.3001 20.6017 11.5251 20.4839 11.7083C20.3705 11.8848 20.2347 12.0279 20.0595 12.0896L14.1315 25.799L13.793 25.5483L19.723 11.8513C19.6833 11.6137 19.7121 11.3835 19.772 11.1627C19.8341 10.9342 19.9313 10.7095 20.0251 10.4927L20.0265 10.4895C20.0265 10.4894 20.0265 10.4894 20.0266 10.4893C20.4268 9.55017 20.94 8.70502 21.5456 7.98751L21.6842 7.82324ZM21.4864 8.28797C20.9532 8.95452 20.498 9.72472 20.1365 10.5729L20.1363 10.5734C20.0408 10.7942 19.9489 11.007 19.891 11.2202C19.8336 11.4318 19.8116 11.6372 19.8517 11.8432L19.8582 11.8766L13.9669 25.4841L14.084 25.5709L19.9773 11.9419L20.0045 11.9338C20.1576 11.8885 20.2794 11.7672 20.3878 11.5985C20.4971 11.4285 20.589 11.2166 20.6845 10.9959C20.6897 10.9836 20.6954 10.9699 20.7017 10.9549C20.8425 10.619 21.2665 9.60754 21.4864 8.28797Z" fill="black"/>
<path d="M13.8789 25.5164L14.1067 25.6852L20.0172 12.0164C20.3589 11.9152 20.5488 11.4764 20.7386 11.0377C20.8652 10.7339 21.3714 9.56953 21.5866 8.05078C20.9861 8.76222 20.4773 9.60023 20.0805 10.5314C19.8906 10.9702 19.7008 11.4089 19.7894 11.8645L13.8789 25.5164Z" fill="white"/>
<path d="M31.0217 13.4504H19.9053C19.5256 12.1004 18.26 9.40039 17.5006 9.40039C16.7413 9.40039 15.4756 12.1004 15.0959 13.4504H3.99219V21.5504H15.0959C15.4756 22.9004 16.7413 25.6004 17.5006 25.6004C18.26 25.6004 19.5256 22.9004 19.9053 21.5504H31.0217V13.4504Z" fill="#BB0000"/>
<path d="M19.9043 21.5502C20.284 20.2002 20.5371 18.8502 20.5371 17.5002C20.5371 16.1502 20.284 14.8002 19.9043 13.4502C19.5246 14.8002 19.2715 16.1502 19.2715 17.5002C19.2715 18.8502 19.5246 20.2002 19.9043 21.5502Z" fill="black"/>
<path d="M17.5004 18.5123C17.78 18.5123 18.0066 18.059 18.0066 17.4998C18.0066 16.9406 17.78 16.4873 17.5004 16.4873C17.2208 16.4873 16.9941 16.9406 16.9941 17.4998C16.9941 18.059 17.2208 18.5123 17.5004 18.5123Z" fill="white"/>
<path d="M17.627 18.4785C17.627 18.4785 18.1332 19.8285 18.1332 22.0223C18.1332 24.216 17.627 25.566 17.627 25.566V18.4785Z" fill="white"/>
</g>
<defs>
<clipPath id="clip0_45_2960">
<rect x="4" y="4" width="27" height="27" rx="13.5" fill="white"/>
</clipPath>
</defs>
</svg>
