<svg width="98" height="30" viewBox="0 0 98 30" fill="none" xmlns="http://www.w3.org/2000/svg">
<path d="M40.7375 18.896V26.4502H36.6626V7.21996H40.7375V9.25739C41.7405 7.61177 43.3861 6.78113 45.6586 6.78113C47.7901 6.78113 49.373 7.47072 50.4231 8.83423C51.4731 10.1977 51.9903 11.9531 51.9903 14.1002C51.9903 16.2317 51.4575 17.9713 50.4074 19.3505C49.3573 20.7297 47.7744 21.4193 45.6586 21.4193C43.4175 21.4036 41.7718 20.573 40.7375 18.896ZM41.6151 17.2034C42.195 17.8773 43.1197 18.2064 44.3892 18.2064C45.6586 18.2064 46.552 17.8773 47.1005 17.2347C47.6334 16.5765 47.9155 15.5421 47.9155 14.0845C47.9155 12.6427 47.649 11.5926 47.1005 10.9343C46.552 10.2918 45.6586 9.96265 44.3892 9.96265C43.1197 9.96265 42.195 10.2918 41.6151 10.9657C41.0352 11.6396 40.7375 12.674 40.7375 14.0845C40.7375 15.4951 41.0352 16.5451 41.6151 17.2034Z" fill="white"/>
<path d="M55.3756 19.3348C54.1688 17.9556 53.5576 16.2003 53.5576 14.0689C53.5576 12.6897 53.8241 11.4515 54.3726 10.3545C54.9055 9.25739 55.7361 8.37973 56.8488 7.73715C57.9616 7.09458 59.3251 6.78113 60.9551 6.78113C63.4 6.78113 65.1866 7.45505 66.3464 8.81856C67.5062 10.1821 68.0861 11.9217 68.0861 14.0375C68.0861 14.5704 68.0704 14.9308 68.0234 15.1346H57.5541C57.6638 16.3884 58.0243 17.2661 58.6198 17.7989C59.2154 18.3318 60.0304 18.5982 61.0491 18.5982C61.8954 18.5982 62.5693 18.4415 63.0865 18.1124C63.6037 17.7989 63.9642 17.3601 64.1522 16.8115H68.0547C67.8353 18.1124 67.1614 19.2094 66.033 20.0871C64.9045 20.9648 63.2119 21.4036 60.9551 21.4036C58.4474 21.4036 56.5824 20.714 55.3756 19.3348ZM64.1993 12.6583C64.1209 11.6083 63.8231 10.8246 63.3059 10.3074C62.7887 9.79025 62.0208 9.52382 61.0177 9.52382C60.0147 9.52382 59.2311 9.75891 58.6669 10.2448C58.1027 10.7149 57.7422 11.5299 57.5855 12.6583H64.1993Z" fill="white"/>
<path d="M73.9318 18.1907C74.4647 18.6295 75.217 18.849 76.22 18.849C77.8656 18.849 78.6963 18.3161 78.6963 17.2504C78.6963 16.7958 78.5552 16.4354 78.2731 16.1689C77.991 15.9025 77.4895 15.7301 76.7686 15.6361L73.6968 15.2443C72.3959 15.0719 71.4086 14.6644 70.7346 13.9748C70.0607 13.3009 69.7159 12.3762 69.7159 11.2321C69.7159 9.74321 70.2802 8.63046 71.4086 7.87818C72.537 7.1259 74.0572 6.74976 75.9536 6.74976C77.8657 6.74976 79.3859 7.1259 80.5143 7.87818C81.6584 8.63046 82.2853 9.74321 82.4107 11.2321H78.6493C78.5709 10.6522 78.3202 10.182 77.8656 9.83724C77.4111 9.49245 76.7843 9.32005 75.9536 9.32005C75.1073 9.32005 74.4804 9.4611 74.0886 9.72754C73.6811 10.0096 73.4773 10.3858 73.4773 10.856C73.4773 11.2478 73.6027 11.5456 73.8692 11.7963C74.1199 12.0314 74.5744 12.1881 75.217 12.2665L78.1007 12.5956C79.6993 12.7994 80.8434 13.2539 81.5487 13.9435C82.254 14.633 82.6144 15.6047 82.6144 16.8585C82.6144 19.899 80.4673 21.4192 76.173 21.4192C73.8848 21.4192 72.1765 20.9491 71.0794 20.0244C69.9667 19.0997 69.4025 17.9243 69.3555 16.4981H73.0699C73.1012 17.172 73.399 17.7519 73.9318 18.1907Z" fill="white"/>
<path d="M85.4672 20.2281C84.6365 19.5072 84.2134 18.5355 84.2134 17.2974C84.2134 16.1219 84.5425 15.1973 85.2164 14.5233C85.8903 13.8494 87.0658 13.3636 88.7427 13.0658L91.9556 12.5172C92.5982 12.4075 93.037 12.2508 93.2878 12.0471C93.5385 11.8433 93.6639 11.5456 93.6639 11.1381C93.6639 10.6209 93.4915 10.2291 93.1311 9.96262C92.7706 9.68052 92.1594 9.55514 91.2817 9.55514C89.5107 9.55514 88.5703 10.2761 88.4763 11.7023H84.5112C84.5425 10.1977 85.1537 8.99093 86.3448 8.09759C87.5203 7.20426 89.1502 6.74976 91.219 6.74976C93.2564 6.74976 94.7923 7.15724 95.8581 7.98789C96.9081 8.81853 97.441 9.96262 97.441 11.4515V17.3914C97.441 18.6766 97.5037 19.8677 97.6291 20.9647H94.0871C93.9617 19.899 93.899 18.9273 93.899 18.0183C93.5699 19.0213 92.9743 19.8363 92.1123 20.4319C91.2504 21.0274 90.1376 21.3252 88.7898 21.3252C87.4106 21.3252 86.2978 20.9647 85.4672 20.2281ZM88.7584 18.1123C89.1189 18.3944 89.5891 18.5355 90.1689 18.5355C91.2503 18.5355 92.0967 18.175 92.7236 17.4384C93.3505 16.7018 93.6639 15.6988 93.6639 14.4136V13.8024C93.3505 14.0218 93.0214 14.1942 92.6922 14.3196C92.3474 14.445 91.9243 14.5704 91.4071 14.6801L90.2473 14.9622C89.5107 15.1502 88.9935 15.3853 88.6801 15.6831C88.3666 15.9809 88.2099 16.3727 88.2099 16.8899C88.2255 17.4227 88.4136 17.8302 88.7584 18.1123Z" fill="white"/>
<path d="M14.3607 0.950928C6.55578 0.950928 0.239746 7.28263 0.239746 15.0876C0.239746 22.8925 6.57145 29.2085 14.3607 29.2085C22.1499 29.2085 28.4973 22.8925 28.4973 15.0876C28.4816 7.28263 22.1656 0.950928 14.3607 0.950928ZM20.2379 20.6043C20.2379 21.5446 19.7207 22.391 18.9527 22.7044L10.0664 26.3404C8.79695 26.8576 7.48046 25.7762 7.48046 24.2403V9.00661C7.48046 7.78415 8.34245 6.78111 9.40818 6.78111L18.2788 7.62743C19.3446 7.62743 20.2066 8.63047 20.2066 9.85293V20.6043H20.2379Z" fill="white"/>
</svg>
