<?xml version="1.0" encoding="UTF-8"?><svg id="Layer_2" xmlns="http://www.w3.org/2000/svg" xmlns:xlink="http://www.w3.org/1999/xlink" viewBox="0 0 386.22 610.8"><defs><style>.cls-1{stroke:url(#linear-gradient-13);stroke-width:.94px;}.cls-1,.cls-2,.cls-3,.cls-4,.cls-5,.cls-6,.cls-7,.cls-8,.cls-9,.cls-10,.cls-11,.cls-12,.cls-13,.cls-14{fill:none;stroke-miterlimit:10;}.cls-2{stroke:url(#linear-gradient-10);stroke-width:.77px;}.cls-3{stroke:url(#linear-gradient-12);stroke-width:.88px;}.cls-4{stroke:url(#linear-gradient-11);stroke-width:.83px;}.cls-5{stroke:url(#linear-gradient-14);}.cls-6{stroke:url(#linear-gradient);stroke-width:.25px;}.cls-7{stroke:url(#linear-gradient-9);stroke-width:.71px;}.cls-8{stroke:url(#linear-gradient-3);stroke-width:.37px;}.cls-9{stroke:url(#linear-gradient-4);stroke-width:.42px;}.cls-10{stroke:url(#linear-gradient-5);stroke-width:.48px;}.cls-11{stroke:url(#linear-gradient-8);stroke-width:.65px;}.cls-12{stroke:url(#linear-gradient-7);stroke-width:.6px;}.cls-13{stroke:url(#linear-gradient-6);stroke-width:.54px;}.cls-14{stroke:url(#linear-gradient-2);stroke-width:.31px;}</style><linearGradient id="linear-gradient" x1="193.11" y1="275.41" x2="193.11" y2="335.39" gradientUnits="userSpaceOnUse"><stop offset="0" stop-color="#0524dd"/><stop offset="1" stop-color="#76dbfa"/></linearGradient><linearGradient id="linear-gradient-2" y1="254.23" y2="356.57" xlink:href="#linear-gradient"/><linearGradient id="linear-gradient-3" y1="233.04" y2="377.76" xlink:href="#linear-gradient"/><linearGradient id="linear-gradient-4" y1="211.86" y2="398.95" xlink:href="#linear-gradient"/><linearGradient id="linear-gradient-5" y1="190.67" y2="420.13" xlink:href="#linear-gradient"/><linearGradient id="linear-gradient-6" y1="169.49" x2="193.11" y2="441.32" xlink:href="#linear-gradient"/><linearGradient id="linear-gradient-7" y1="148.3" x2="193.11" y2="462.5" xlink:href="#linear-gradient"/><linearGradient id="linear-gradient-8" y1="127.11" x2="193.11" y2="483.69" xlink:href="#linear-gradient"/><linearGradient id="linear-gradient-9" y1="105.93" x2="193.11" y2="504.87" xlink:href="#linear-gradient"/><linearGradient id="linear-gradient-10" y1="84.74" x2="193.11" y2="526.06" xlink:href="#linear-gradient"/><linearGradient id="linear-gradient-11" y1="63.56" x2="193.11" y2="547.25" xlink:href="#linear-gradient"/><linearGradient id="linear-gradient-12" y1="42.37" x2="193.11" y2="568.43" xlink:href="#linear-gradient"/><linearGradient id="linear-gradient-13" y1="21.19" x2="193.11" y2="589.62" xlink:href="#linear-gradient"/><linearGradient id="linear-gradient-14" y1="0" x2="193.11" y2="610.8" xlink:href="#linear-gradient"/></defs><g id="Layer_1-2"><path class="cls-6" d="M211.98,284.17v33.01c0,2.82-1.64,5.24-4.02,6.38l-.11.06-23.54,10.98c-.14.07-.28.13-.42.18-.79.31-1.66.48-2.57.48-3.91,0-7.07-3.16-7.07-7.07v-45.59c0-2.22,1.02-4.21,2.62-5.5.97-.78,2.14-1.31,3.43-1.5.47-.07.95-.08,1.43-.05l.54.04,22.63,1.51.5.03c.73.05,1.47.2,2.15.48.89.36,1.69.9,2.35,1.56,1.28,1.28,2.08,3.05,2.08,5Z"/><path class="cls-14" d="M225.34,269.14v56.4c0,4.82-2.8,8.95-6.87,10.9l-.19.1-40.22,18.76c-.24.12-.48.22-.72.31-1.36.51-2.84.82-4.39.82-6.68,0-12.08-5.4-12.08-12.08v-77.89c0-3.79,1.74-7.19,4.48-9.4,1.66-1.33,3.66-2.24,5.86-2.56.8-.12,1.62-.14,2.44-.09l.92.07,38.66,2.58.85.05c1.25.09,2.51.35,3.67.82,1.52.62,2.89,1.54,4.01,2.67,2.19,2.19,3.55,5.21,3.55,8.54Z"/><path class="cls-8" d="M238.71,254.1v79.78c0,6.82-3.96,12.66-9.72,15.42l-.27.15-56.89,26.54c-.34.17-.68.31-1.01.44-1.92.72-4.01,1.16-6.21,1.16-9.45,0-17.09-7.64-17.09-17.09v-110.19c0-5.37,2.47-10.18,6.33-13.29,2.34-1.89,5.17-3.17,8.29-3.63,1.14-.17,2.3-.19,3.46-.12l1.31.1,54.69,3.65,1.21.07c1.77.12,3.55.49,5.2,1.16,2.15.88,4.08,2.18,5.68,3.77,3.09,3.09,5.03,7.37,5.03,12.08Z"/><path class="cls-9" d="M252.07,239.06v103.17c0,8.81-5.12,16.38-12.56,19.94l-.34.19-73.57,34.32c-.44.22-.88.4-1.31.56-2.48.93-5.19,1.5-8.03,1.5-12.22,0-22.1-9.88-22.1-22.1v-142.49c0-6.94,3.19-13.16,8.19-17.19,3.03-2.44,6.69-4.09,10.72-4.69,1.47-.22,2.97-.25,4.47-.16l1.69.12,70.73,4.72,1.56.09c2.28.16,4.59.63,6.72,1.5,2.78,1.13,5.28,2.81,7.34,4.88,4,4,6.5,9.53,6.5,15.63Z"/><path class="cls-10" d="M265.44,224.02v126.56c0,10.81-6.29,20.09-15.41,24.46l-.42.23-90.25,42.1c-.54.27-1.08.49-1.61.69-3.05,1.14-6.36,1.84-9.85,1.84-14.99,0-27.1-12.11-27.1-27.11v-174.79c0-8.51,3.91-16.14,10.05-21.09,3.72-2.99,8.2-5.02,13.15-5.75,1.8-.27,3.64-.31,5.48-.19l2.07.15,86.76,5.79,1.92.11c2.8.19,5.63.77,8.24,1.84,3.41,1.39,6.48,3.45,9.01,5.98,4.91,4.91,7.97,11.69,7.97,19.17Z"/><path class="cls-13" d="M278.8,208.98v149.94c0,12.81-7.45,23.8-18.26,28.98l-.5.27-106.93,49.87c-.64.32-1.27.58-1.91.82-3.61,1.35-7.54,2.18-11.68,2.18-17.76,0-32.11-14.35-32.11-32.11v-207.08c0-10.08,4.63-19.12,11.9-24.98,4.41-3.54,9.72-5.95,15.58-6.81,2.13-.32,4.31-.36,6.49-.23l2.45.18,102.79,6.86,2.27.14c3.32.23,6.67.92,9.77,2.18,4.04,1.65,7.68,4.09,10.67,7.09,5.82,5.81,9.45,13.85,9.45,22.71Z"/><path class="cls-12" d="M292.17,193.94v173.33c0,14.81-8.61,27.51-21.11,33.5l-.58.32-123.6,57.65c-.74.37-1.47.67-2.2.95-4.17,1.56-8.72,2.52-13.5,2.52-20.53,0-37.12-16.59-37.12-37.12v-239.38c0-11.66,5.36-22.11,13.76-28.88,5.09-4.1,11.24-6.88,18.01-7.88,2.47-.37,4.99-.42,7.51-.26l2.84.21,118.82,7.93,2.63.16c3.84.26,7.72,1.06,11.29,2.52,4.67,1.9,8.87,4.73,12.34,8.19,6.72,6.72,10.92,16.01,10.92,26.25Z"/><path class="cls-11" d="M305.53,178.9v196.71c0,16.8-9.77,31.23-23.96,38.02l-.65.36-140.28,65.43c-.84.42-1.67.76-2.5,1.07-4.74,1.77-9.89,2.86-15.32,2.86-23.3,0-42.13-18.83-42.13-42.13V169.55c0-13.23,6.08-25.09,15.61-32.78,5.78-4.65,12.75-7.81,20.44-8.94,2.8-.42,5.66-.48,8.52-.3l3.22.24,134.86,9,2.98.18c4.35.3,8.76,1.2,12.81,2.86,5.3,2.16,10.07,5.36,14,9.3,7.63,7.63,12.4,18.18,12.4,29.8Z"/><path class="cls-7" d="M318.9,163.87v220.1c0,18.8-10.93,34.94-26.8,42.54l-.73.4-156.96,73.21c-.93.47-1.87.85-2.8,1.2-5.3,1.98-11.07,3.2-17.14,3.2-26.07,0-47.14-21.07-47.14-47.14V153.4c0-14.8,6.8-28.07,17.47-36.67,6.47-5.2,14.27-8.73,22.87-10,3.13-.47,6.33-.53,9.53-.33l3.6.27,150.89,10.07,3.33.2c4.87.33,9.8,1.35,14.34,3.2,5.92,2.42,11.27,6,15.67,10.4,8.54,8.53,13.87,20.34,13.87,33.34Z"/><path class="cls-2" d="M332.26,148.83v243.49c0,20.8-12.09,38.65-29.65,47.06l-.81.44-173.64,80.99c-1.03.52-2.07.94-3.1,1.33-5.86,2.2-12.25,3.54-18.96,3.54-28.84,0-52.15-23.31-52.15-52.15V137.25c0-16.38,7.52-31.05,19.33-40.57,7.16-5.75,15.79-9.66,25.3-11.06,3.46-.52,7.01-.59,10.55-.37l3.98.29,166.92,11.14,3.69.22c5.39.37,10.84,1.49,15.86,3.54,6.55,2.68,12.47,6.64,17.33,11.51,9.44,9.44,15.34,22.5,15.34,36.88Z"/><path class="cls-4" d="M345.63,133.79v266.87c0,22.8-13.26,42.36-32.5,51.58l-.89.49-190.31,88.77c-1.13.57-2.27,1.03-3.39,1.46-6.43,2.41-13.42,3.88-20.78,3.88-31.61,0-57.16-25.55-57.16-57.16V121.1c0-17.95,8.25-34.04,21.18-44.47,7.84-6.31,17.3-10.59,27.73-12.13,3.8-.57,7.68-.65,11.56-.4l4.37.32,182.95,12.21,4.04.24c5.91.4,11.88,1.63,17.39,3.88,7.18,2.93,13.66,7.28,19,12.61,10.35,10.35,16.82,24.66,16.82,40.42Z"/><path class="cls-3" d="M358.99,118.75v290.26c0,24.8-14.42,46.08-35.35,56.1l-.97.53-206.99,96.55c-1.23.62-2.47,1.12-3.69,1.58-6.99,2.62-14.6,4.22-22.6,4.22-34.38,0-62.17-27.79-62.17-62.17V104.95c0-19.52,8.97-37.02,23.04-48.36,8.53-6.86,18.82-11.52,30.16-13.19,4.13-.62,8.35-.7,12.57-.44l4.75.35,198.99,13.28,4.4.26c6.42.44,12.92,1.78,18.91,4.22,7.81,3.19,14.86,7.91,20.66,13.72,11.26,11.25,18.29,26.82,18.29,43.97Z"/><path class="cls-1" d="M372.36,103.71v313.65c0,26.79-15.58,49.79-38.2,60.62l-1.04.57-223.67,104.33c-1.33.67-2.67,1.21-3.99,1.71-7.55,2.83-15.77,4.56-24.42,4.56-37.15,0-67.17-30.02-67.17-67.18V88.79c0-21.09,9.69-40,24.9-52.26,9.22-7.41,20.33-12.45,32.59-14.25,4.46-.67,9.02-.76,13.58-.47l5.13.38,215.02,14.35,4.75.28c6.94.48,13.96,1.92,20.43,4.56,8.44,3.45,16.06,8.55,22.32,14.82,12.16,12.16,19.76,28.98,19.76,47.51Z"/><path class="cls-5" d="M385.72,88.67v337.03c0,28.79-16.74,53.5-41.04,65.14l-1.12.61-240.34,112.11c-1.43.71-2.86,1.33-4.29,1.84-8.07,3.17-16.95,4.9-26.24,4.9-39.92,0-72.18-32.26-72.18-72.18V72.64C.5,49.98,10.91,29.66,27.25,16.49,37.16,8.52,49.1,3.11,62.27,1.17c4.8-.71,9.7-.82,14.6-.51l5.51.41,231.05,15.42,5.11.31c7.46.51,15.01,2.04,21.96,4.9,9.08,3.68,17.25,9.19,23.99,15.93,13.07,13.07,21.24,31.14,21.24,51.05Z"/></g></svg>