<svg width="422" height="271" viewBox="0 0 422 271" fill="none" xmlns="http://www.w3.org/2000/svg">
<g clip-path="url(#clip0_610_8627)">
<path d="M405.721 0H15.6461C7.00498 0 0 7.15486 0 15.9808V255.019C0 263.845 7.00498 271 15.6461 271H405.721C414.362 271 421.367 263.845 421.367 255.019V15.9808C421.367 7.15486 414.362 0 405.721 0Z" fill="url(#paint0_linear_610_8627)"/>
<path d="M86.8259 184.388C78.3721 168.316 73.7569 157.01 67.3941 144.284C63.2568 135.995 58.7909 123.911 55.4303 116.623C52.219 109.633 49.0227 102.224 48.0668 94.5322C47.3648 88.8863 48.3057 82.7625 53.6977 79.7454C59.3585 76.564 66.2291 77.1167 72.4275 78.0278C79.343 79.0434 86.0493 81.0747 92.7257 83.0612C99.3573 85.0328 106.183 87.0641 111.545 91.4404C120.193 98.4902 122.12 111.171 132.187 116.638C138.565 120.103 146.391 119.192 153.426 117.414C160.521 115.622 167.421 113.023 173.814 109.468C183.044 104.345 231.915 55.5788 294.482 61.4039M294.482 61.4039C236.799 56.3256 189.571 104.196 179.594 109.722C173.231 113.262 166.346 115.861 159.266 117.683C152.261 119.475 144.479 120.431 138.087 117.145C128.05 111.933 125.884 99.7449 117.176 93.0087C111.799 88.8266 104.973 86.9148 98.3566 85.0477C91.6951 83.1658 84.9888 81.254 78.1033 80.313C71.9197 79.4766 65.0939 78.9837 59.4182 82.0904C54.0412 85.0477 52.9658 91.0072 53.4886 96.5187C54.1906 104.017 57.0882 111.231 59.9559 118.042C62.9431 125.151 66.9609 136.906 70.68 144.986C76.3856 157.383 80.3885 168.406 88.2299 184.014M294.482 61.4039C241.668 57.0724 196.098 104.032 185.344 109.976C179.026 113.486 172.156 116.1 165.076 117.952C158.116 119.774 150.364 120.775 143.971 117.653C133.949 112.739 131.545 100.999 122.792 94.562C117.385 90.5741 110.589 88.7668 103.988 87.0044C97.341 85.2419 90.6496 83.4346 83.779 82.5684C77.6104 81.7917 70.8144 81.3585 65.1387 84.4055C59.7617 87.3031 58.5668 93.0983 58.9104 98.4604C59.3585 105.764 61.9723 112.769 64.4815 119.416C67.0954 126.346 70.68 137.772 73.9809 145.643C79.0293 157.697 82.4198 168.451 89.6489 183.611M294.482 61.4039C246.538 57.8043 202.611 103.867 191.095 110.215C184.807 113.71 177.966 116.324 170.886 118.206C163.956 120.043 156.249 121.103 149.856 118.131C139.864 113.501 137.22 102.224 128.408 96.1005C122.986 92.2918 116.205 90.604 109.603 88.961C102.972 87.3031 96.2954 85.6004 89.4398 84.8088C83.2861 84.1068 76.52 83.7184 70.8443 86.7206C65.4823 89.5584 64.1529 95.2043 64.3023 100.417C64.4965 107.527 66.8265 114.337 68.9922 120.82C71.2476 127.556 74.3842 138.668 77.2519 146.331C81.6581 158.07 84.4362 168.541 91.0379 183.238M294.482 61.4039C251.392 58.5362 209.138 103.718 196.845 110.469C190.587 113.934 183.776 116.563 176.696 118.475C169.811 120.327 162.149 121.432 155.741 118.639C145.764 114.278 142.866 103.509 134.024 97.6687C128.572 94.0691 121.821 92.471 115.234 90.9326C108.618 89.3792 101.956 87.796 95.1155 87.0791C88.9767 86.4368 82.2406 86.1231 76.5648 89.0506C71.2177 91.8287 69.7689 97.3103 69.7241 102.374C69.6793 109.289 71.6957 115.906 73.5179 122.209C75.3401 128.512 78.1033 139.55 80.5528 147.003C84.3017 158.414 86.4675 168.6 92.4568 182.834M294.482 61.4039C256.261 59.283 215.65 103.524 202.596 110.723C196.367 114.158 189.571 116.802 182.507 118.744C175.651 120.611 168.033 121.776 161.626 119.147C151.678 115.069 148.542 104.763 139.655 99.237C134.173 95.8167 127.452 94.338 120.865 92.9191C114.264 91.4852 107.617 90.0065 100.791 89.3643C94.6674 88.7967 87.976 88.5279 82.2854 91.3956C76.9382 94.114 75.37 99.4312 75.1459 104.36C74.8472 111.081 76.5798 117.504 78.0435 123.628C79.567 130.02 81.8223 140.461 83.8387 147.72C86.9305 158.802 88.4839 168.72 93.8608 182.491M294.482 61.4039C261.13 60.0148 222.162 103.359 208.346 110.962C202.148 114.367 195.381 117.011 188.317 118.997C181.506 120.879 173.933 122.089 167.496 119.64C157.578 115.846 154.188 106.018 145.256 100.775C139.759 97.5493 133.053 96.1751 126.481 94.8608C119.894 93.5314 113.248 92.1573 106.452 91.6047C100.328 91.1118 93.6816 90.9027 87.991 93.6957C82.6588 96.3544 80.9561 101.522 80.5528 106.302C80.0151 112.829 81.4489 119.057 82.5542 125.002C83.7043 131.215 85.5265 141.342 87.1247 148.377C89.5742 159.146 90.5002 168.765 95.2648 182.088M294.482 61.4039C265.999 60.7617 228.689 103.195 214.096 111.216C207.943 114.606 201.192 117.25 194.127 119.251C187.346 121.148 179.818 122.418 173.381 120.118C163.493 116.593 159.849 107.243 150.872 102.314C145.346 99.2818 138.654 98.0123 132.097 96.8174C125.525 95.5926 118.894 94.338 112.113 93.86C106.004 93.4269 99.3872 93.2775 93.6965 96.0258C88.3644 98.6247 86.5422 103.628 85.9596 108.258C85.168 114.591 86.3181 120.626 87.0649 126.406C87.8565 132.455 89.2307 142.238 90.3957 149.064C92.2029 159.519 92.5017 168.839 96.6688 181.714M294.482 61.4039C270.869 61.4935 235.201 103.031 219.847 111.455C213.723 114.815 207.002 117.474 199.937 119.505C193.201 121.417 185.718 122.732 179.265 120.611C169.408 117.369 165.524 108.497 156.488 103.867C150.947 101.029 144.27 99.8644 137.728 98.774C131.171 97.6687 124.555 96.5187 117.788 96.1005C111.695 95.742 105.108 95.6374 99.4171 98.3259C94.0998 100.865 92.1432 105.704 91.3815 110.2C90.3359 116.339 91.1873 122.194 91.5906 127.78C92.0088 133.68 92.9497 143.119 93.6965 149.721C94.8466 159.878 94.533 168.899 98.0878 181.296M294.482 61.4039C275.738 62.2254 241.728 102.867 225.597 111.709C219.503 115.054 212.812 117.728 205.747 119.774C198.682 121.82 191.603 123.075 185.15 121.118C175.322 118.146 171.185 109.752 162.104 105.421C156.533 102.762 149.886 101.731 143.344 100.746C136.802 99.7449 130.2 98.6993 123.449 98.3707C117.37 98.072 110.813 98.0272 105.123 100.656C99.8054 103.12 97.7293 107.825 96.7883 112.157C95.4889 118.101 96.0564 123.777 96.1162 129.169C96.1759 134.904 96.6688 144.015 96.9974 150.393C97.4903 160.251 96.5643 168.959 99.5067 180.908M294.482 61.4039C280.607 62.9722 248.24 102.702 231.348 111.963C225.284 115.278 218.607 117.967 211.557 120.043C204.896 122 197.502 123.404 191.035 121.626C181.237 118.923 176.861 111.022 167.72 106.989C162.134 104.524 155.502 103.598 148.975 102.717C142.448 101.821 135.861 100.895 129.125 100.641C123.061 100.417 116.534 100.417 110.843 103.001C105.541 105.406 103.33 109.946 102.195 114.143C100.642 119.894 100.911 125.405 100.627 130.588C100.313 136.174 100.373 144.956 100.268 151.095C100.119 160.654 98.5807 169.048 100.896 180.549M294.482 61.4039C285.476 63.7041 254.767 102.538 237.098 112.202C231.079 115.502 224.417 118.191 217.367 120.297C210.751 122.268 203.402 123.717 196.905 122.104C187.137 119.67 182.507 112.246 173.321 108.527C167.705 106.257 161.103 105.436 154.591 104.674C148.079 103.897 141.507 103.076 134.786 102.896C128.737 102.747 122.239 102.807 116.549 105.316C111.246 107.646 108.916 112.052 107.602 116.1C105.795 121.656 105.765 127.003 105.138 131.992C104.451 137.444 104.062 145.868 103.554 151.782C102.748 161.058 100.597 169.138 102.3 180.161M294.482 61.4039C290.345 64.4509 261.28 102.389 242.848 112.455C236.859 115.726 230.227 118.43 223.178 120.566C216.591 122.552 209.287 124.061 202.79 122.612C193.051 120.461 188.182 113.516 178.952 110.096C173.321 108.005 166.734 107.303 160.222 106.645C153.725 105.973 147.168 105.256 140.461 105.152C134.427 105.062 127.96 105.182 122.269 107.631C116.982 109.901 114.517 114.143 113.024 118.042C110.978 123.404 110.634 128.586 109.663 133.366C108.588 138.683 107.781 146.764 106.84 152.439C105.362 161.431 102.613 169.183 103.704 179.758M294.482 61.4039C295.214 65.1827 267.807 102.224 248.599 112.709C242.639 115.965 236.038 118.669 228.988 120.835C222.446 122.836 215.187 124.389 208.675 123.12C198.966 121.238 193.843 114.771 184.568 111.649C178.907 109.752 172.35 109.155 165.853 108.617C159.371 108.049 152.814 107.452 146.137 107.422C140.118 107.407 133.695 107.571 127.99 109.961C122.702 112.172 120.119 116.264 118.446 120.013C116.145 125.181 115.488 130.2 114.189 134.77C112.725 139.938 111.485 147.69 110.141 153.126C107.99 161.834 104.645 169.257 105.123 179.384M294.482 61.4039C300.084 65.9295 274.334 102.06 254.349 112.948C248.434 116.175 241.833 118.893 234.798 121.089C228.286 123.12 221.087 124.703 214.559 123.613C204.896 122 199.519 116.01 190.184 113.202C184.508 111.5 177.951 111.007 171.469 110.574C165.001 110.125 158.459 109.618 151.798 109.677C145.794 109.737 139.401 109.961 133.695 112.291C128.423 114.442 125.705 118.37 123.853 121.97C121.298 126.943 120.313 131.798 118.7 136.174C116.847 141.222 115.16 148.616 113.412 153.828C110.589 162.252 106.646 169.362 106.512 179.026M294.482 61.4039C304.953 66.6614 280.846 101.896 260.1 113.202C254.215 116.414 247.643 119.132 240.608 121.342C234.141 123.389 226.971 125.017 220.444 124.091C210.81 122.732 205.195 117.25 195.8 114.741C190.109 113.217 183.567 112.844 177.1 112.53C170.647 112.187 164.12 111.798 157.474 111.933C151.484 112.052 145.122 112.336 139.416 114.606C134.158 116.697 131.306 120.476 129.274 123.926C126.466 128.706 125.152 133.396 123.24 137.563C120.985 142.477 118.864 149.527 116.728 154.501C113.218 162.656 108.692 169.422 107.946 178.622M294.482 61.4039C348.76 73.293 339.575 100.507 311.838 115.428C306.282 118.445 299.889 121.208 292.899 123.687C286.761 125.868 280.054 127.855 273.378 128.557C264.043 129.527 256.186 128.437 246.329 128.706C240.444 128.87 234.081 129.527 227.688 130.185C221.37 130.827 214.963 131.424 208.48 132.246C202.626 132.993 196.561 133.784 190.826 135.502C185.643 137.055 181.595 139.385 177.966 141.536C172.843 144.553 168.407 147.585 163.881 150.094C157.728 153.5 151.873 157.592 146.287 160.595C136.309 165.957 126.855 170.064 120.582 175.142M294.482 61.4039C519.136 104.3 225.881 160.072 131.828 172.051M109.35 178.234C110.709 169.482 115.787 163.044 120.014 155.173C122.553 150.438 125.092 143.717 127.766 138.952C129.976 134.994 131.634 130.468 134.696 125.883C136.907 122.582 139.894 118.968 145.151 116.936C150.872 114.726 157.19 114.382 163.164 114.203C169.796 113.994 176.293 114.278 182.746 114.502C189.213 114.711 195.725 114.98 201.446 116.309C210.885 118.505 216.755 123.523 226.359 124.613C232.916 125.36 240.025 123.687 246.463 121.626C253.483 119.386 260.04 116.653 265.895 113.471C287.418 101.761 309.867 67.4232 294.527 61.4338M110.739 177.831C112.71 169.541 118.356 163.417 123.27 155.83C126.197 151.334 129.155 144.956 132.247 140.326C134.756 136.577 136.742 132.216 140.073 127.825C142.463 124.658 145.585 121.208 150.827 119.236C156.548 117.086 162.836 116.697 168.795 116.428C175.397 116.145 181.894 116.309 188.317 116.428C194.769 116.533 201.266 116.682 207.002 117.832C216.501 119.729 222.61 124.255 232.184 125.076C238.756 125.644 245.821 123.926 252.213 121.85C259.233 119.58 265.76 116.832 271.585 113.68C293.885 101.567 314.676 68.1251 294.468 61.389M112.143 177.457C114.727 169.631 120.925 163.821 126.556 156.532C129.857 152.26 133.232 146.226 136.772 141.745C139.58 138.19 141.91 134.008 145.495 129.796C148.064 126.779 151.305 123.478 156.548 121.566C162.268 119.475 168.526 119.027 174.471 118.699C181.058 118.34 187.54 118.4 193.948 118.415C200.4 118.415 206.867 118.445 212.633 119.401C222.177 120.984 228.555 125.017 238.084 125.584C244.671 125.973 251.676 124.21 258.038 122.119C265.058 119.819 271.556 117.071 277.351 113.934C300.427 101.403 319.56 68.872 294.482 61.389M294.482 61.389C358.499 74.7717 352.614 100.178 323.339 115.921C317.843 118.893 311.495 121.656 304.52 124.21C298.455 126.421 291.839 128.482 285.147 129.557C275.872 131.051 267.523 130.946 257.56 131.828C251.631 132.35 245.298 133.247 238.935 134.128C232.632 134.979 226.254 135.801 219.817 136.771C213.977 137.653 207.988 138.564 202.237 140.147C197.084 141.581 192.768 143.597 188.78 145.449C183.149 148.078 178.026 150.692 172.918 152.887C165.913 155.89 159.206 159.355 152.858 161.954C141.462 166.629 130.887 170.198 123.39 174.366M294.482 61.389C363.368 75.5036 359.141 100.014 329.089 116.16C323.623 119.117 317.305 121.88 310.33 124.464C304.295 126.69 297.724 128.796 291.017 130.05C281.772 131.783 273.184 132.171 263.162 133.366C257.217 134.068 250.914 135.069 244.551 136.069C238.263 137.04 231.9 137.966 225.478 139.012C219.653 139.968 213.693 140.939 207.943 142.462C202.805 143.836 198.354 145.688 194.187 147.406C188.287 149.841 182.835 152.245 177.428 154.277C169.99 157.07 162.866 160.221 156.129 162.626C144.031 166.942 132.904 170.273 124.793 173.977M294.482 61.389C368.237 76.2504 365.653 99.8644 334.84 116.414C329.418 119.341 323.115 122.119 316.14 124.733C310.15 126.958 303.623 129.094 296.902 130.543C287.702 132.53 278.859 133.411 268.792 134.919C262.818 135.816 256.53 136.936 250.182 138.041C243.909 139.116 237.561 140.162 231.153 141.282C225.343 142.298 219.429 143.328 213.663 144.792C208.51 146.107 203.94 147.794 199.593 149.363C193.44 151.588 187.66 153.784 181.939 155.666C174.083 158.25 166.555 161.087 159.415 163.298C146.615 167.271 134.92 170.333 126.197 173.589M294.482 61.389C377.975 77.7141 378.707 99.5358 346.341 116.906C340.979 119.789 334.72 122.582 327.76 125.256C321.845 127.526 315.408 129.722 308.672 131.544C299.531 134.023 290.181 135.89 280.024 138.041C274.005 139.296 267.762 140.655 261.429 141.984C255.186 143.284 248.868 144.538 242.49 145.808C236.71 146.958 230.855 148.108 225.089 149.437C219.966 150.632 215.127 151.991 210.422 153.291C203.746 155.113 197.308 156.89 190.975 158.474C182.283 160.639 173.903 162.85 165.987 164.672C151.783 167.943 138.953 170.482 129.005 172.827M113.547 177.069C116.743 169.691 123.494 164.194 129.842 157.204C133.531 153.156 137.325 147.451 141.283 143.134C144.375 139.774 147.063 135.756 150.902 131.753C153.65 128.885 157.026 125.749 162.253 123.897C167.974 121.865 174.202 121.357 180.132 120.969C186.704 120.536 193.171 120.476 199.564 120.387C206.001 120.267 212.453 120.192 218.234 120.969C227.838 122.254 234.454 125.793 243.954 126.092C250.555 126.301 257.516 124.494 263.834 122.388C270.854 120.058 277.336 117.31 283.086 114.188C306.924 101.253 324.414 69.6038 294.468 61.4039M114.951 176.681C118.759 169.765 126.048 164.553 133.128 157.876C137.19 154.038 141.402 148.676 145.809 144.523C149.184 141.342 152.216 137.518 156.309 133.71C159.236 130.991 162.746 128.004 167.959 126.212C173.679 124.255 179.878 123.687 185.793 123.209C192.349 122.702 198.802 122.537 205.18 122.328C211.602 122.104 218.054 121.91 223.85 122.493C233.498 123.463 240.369 126.824 249.824 126.57C256.44 126.391 263.356 124.763 269.629 122.642C276.634 120.282 283.101 117.519 288.822 114.427C313.436 101.089 329.269 70.3357 294.453 61.389M116.355 176.292C120.776 169.84 128.602 164.911 136.414 158.548C140.85 154.934 145.48 149.885 150.319 145.912C153.979 142.91 157.369 139.281 161.716 135.666C164.822 133.097 168.467 130.259 173.664 128.542C179.4 126.645 185.554 126.017 191.453 125.48C197.995 124.897 204.433 124.628 210.796 124.315C217.218 123.986 223.641 123.672 229.451 124.076C239.159 124.748 246.269 127.302 255.693 127.093C262.325 126.943 269.181 125.062 275.439 122.926C282.444 120.536 288.881 117.773 294.572 114.696C319.963 100.955 334.138 71.0974 294.453 61.4188M117.759 175.904C122.792 169.9 131.171 165.27 139.7 159.235C144.524 155.83 149.558 151.095 154.83 147.301C158.773 144.464 162.507 141.028 167.122 137.608C170.408 135.173 174.172 132.515 179.385 130.842C185.12 129.005 191.244 128.318 197.129 127.72C203.641 127.063 210.079 126.675 216.426 126.256C222.834 125.808 229.242 125.39 235.082 125.599C244.835 125.958 252.198 128.034 261.593 127.556C268.24 127.227 275.051 125.301 281.264 123.15C288.269 120.73 294.692 117.967 300.337 114.905C326.52 100.805 339.022 71.7994 294.468 61.374M119.163 175.531C124.808 169.989 133.74 165.628 142.986 159.922C148.183 156.711 153.635 152.32 159.356 148.705C163.583 146.032 167.675 142.806 172.544 139.579C175.994 137.294 179.908 134.785 185.105 133.187C190.841 131.409 196.935 130.678 202.805 130.005C209.302 129.259 215.724 128.781 222.057 128.243C228.45 127.69 234.843 127.212 240.698 127.182C250.511 127.138 258.113 128.811 267.478 128.094C274.14 127.571 280.906 125.614 287.074 123.448C294.064 120.999 300.472 118.236 306.073 115.189C333.033 100.671 343.876 72.5761 294.453 61.4039M121.986 174.754C128.871 170.124 138.878 166.3 149.572 161.282C155.547 158.474 161.82 154.71 168.407 151.498C173.216 149.153 177.996 146.331 183.388 143.508C187.197 141.506 191.379 139.326 196.547 137.832C202.297 136.174 208.316 135.323 214.171 134.516C220.638 133.62 227.016 132.918 233.334 132.171C239.712 131.394 246.06 130.633 251.959 130.289C261.877 129.722 269.972 130.319 279.278 129.079C285.954 128.198 292.63 126.152 298.724 123.971C305.7 121.447 312.077 118.684 317.604 115.697C346.102 100.372 353.644 74.0548 294.497 61.4188M127.601 173.216C136.937 170.422 149.199 167.614 162.701 164C170.229 161.984 178.19 159.459 186.465 157.085C192.484 155.352 198.608 153.365 205.015 151.349C209.541 149.915 214.246 148.392 219.384 147.137C225.149 145.733 231.034 144.658 236.829 143.567C243.222 142.372 249.555 141.222 255.813 140.028C262.146 138.818 268.419 137.563 274.408 136.503C284.52 134.665 293.616 133.291 302.787 131.066C309.508 129.438 316.005 127.257 321.95 125.017C328.91 122.373 335.198 119.595 340.59 116.682C372.18 99.715 373.106 76.9972 294.482 61.4188M130.409 172.439C140.969 170.557 154.382 168.257 169.273 165.344C177.593 163.716 186.39 161.804 195.501 159.848C202.133 158.429 208.914 156.86 215.844 155.232C220.728 154.082 225.702 152.887 230.81 151.752C236.575 150.483 242.4 149.273 248.166 148.048C254.513 146.704 260.831 145.33 267.06 143.926C273.378 142.492 279.606 141.013 285.64 139.579C295.857 137.13 305.431 134.74 314.557 132.037C321.293 130.005 327.7 127.795 333.57 125.51C340.53 122.806 346.774 120.013 352.091 117.145C385.219 99.3715 382.844 78.446 294.482 61.374M134.726 172.484C166.764 166.838 211.856 160.998 260.115 147.764C284.416 141.103 307.223 137.697 328.208 130.155C375.765 113.053 398.318 91.5599 342.159 75.414C330.075 71.9339 312.256 68.7375 293.781 64.2866M137.639 172.902C170.513 165.583 207.569 162.715 255.23 147.764C279.128 140.266 301.174 139.983 323.981 131.872C372.046 114.771 397.019 91.5748 341.725 77.7291C329.821 74.7568 310.076 72.2475 293.064 67.1692M140.551 173.335C174.262 164.358 203.283 164.448 250.361 147.779C273.871 139.46 295.14 142.298 319.784 133.605C368.327 116.503 395.719 91.5898 341.307 80.0591C329.582 77.5797 307.91 75.7874 292.362 70.0668M143.464 173.768C178.026 163.119 198.981 166.196 245.492 147.794C268.598 138.653 289.091 144.598 315.587 135.338C364.622 118.206 394.375 91.6047 340.904 82.3742C329.343 80.3877 305.759 79.2973 291.675 72.9495M146.391 174.201C181.79 161.879 194.694 167.958 240.638 147.809C263.341 137.847 283.071 146.898 311.39 137.085C360.903 119.924 393.001 91.6346 340.486 84.7192C329.074 83.2106 303.594 82.8521 290.973 75.862M149.304 174.649C185.539 160.654 190.378 169.735 235.754 147.839C258.053 137.07 277.007 149.213 307.178 138.833C357.184 121.626 391.552 91.6794 340.067 87.0641C328.806 86.0485 301.413 86.392 290.271 78.7596M152.216 175.083C189.288 159.415 186.061 171.528 230.885 147.854C252.781 136.293 270.958 151.498 302.981 140.565C353.45 123.314 390.073 91.7242 339.664 89.3792C328.522 88.8564 299.262 89.9169 289.583 81.6423M155.144 175.516C193.051 158.175 181.76 173.32 226.03 147.854C247.523 135.502 264.939 153.784 298.799 142.283C349.746 124.987 388.58 91.7839 339.261 91.6943C328.238 91.6794 297.111 93.4269 288.881 84.525M158.056 175.934C196.815 156.935 177.443 175.112 221.146 147.854C242.221 134.71 258.875 156.054 294.572 144.001C345.997 126.645 386.982 91.8885 338.828 94.0094C327.909 94.4874 294.931 96.9518 288.165 87.4076M160.954 176.352C200.549 155.681 173.112 176.92 216.262 147.854C236.934 133.934 252.811 158.324 290.36 145.718C342.263 128.303 385.354 92.0378 338.41 96.3096C327.581 97.2953 292.765 100.447 287.463 90.2754M163.866 176.77C204.298 154.426 168.795 178.742 211.393 147.854C231.661 133.157 246.762 160.595 286.163 147.436C338.529 129.946 383.711 92.232 337.991 98.6247C327.237 100.133 290.599 103.972 286.761 93.158M166.779 177.189C208.047 153.171 164.479 180.579 206.524 147.854C226.389 132.395 240.713 162.865 281.951 149.168C334.795 131.604 382.008 92.5009 337.573 100.955C326.879 102.986 288.418 107.497 286.059 96.0556M169.691 177.637C211.811 151.947 160.177 182.446 201.64 147.884C221.101 131.663 234.648 165.165 277.739 150.916C331.046 133.291 380.29 92.8593 337.14 103.285C326.505 105.854 286.238 111.037 285.342 98.9533M172.589 178.07C215.545 150.722 155.846 184.328 196.756 147.899C215.829 130.916 228.584 167.435 273.527 152.649C327.297 134.949 378.558 93.2775 336.722 105.615C326.147 108.736 284.072 114.561 284.64 101.836M175.502 178.488C219.294 149.467 151.559 186.195 191.886 147.899C210.557 130.17 222.535 169.706 269.33 154.366C323.578 136.592 376.825 93.7406 336.318 107.915C325.789 111.604 281.921 118.071 283.953 104.704M178.429 178.906C223.058 148.212 147.287 188.062 187.017 147.899C205.299 129.423 216.486 171.961 265.118 156.084C319.829 138.22 375.093 94.2783 335.885 110.23C325.4 114.502 279.741 121.581 283.236 107.586M181.327 179.324C226.792 146.958 142.986 189.944 182.133 147.899C200.027 128.676 210.422 174.216 260.906 157.801C316.08 139.863 373.36 94.8906 335.467 112.545C325.027 117.414 277.56 125.106 282.534 110.469M184.239 179.743C230.556 145.703 138.714 191.841 177.264 147.899C194.784 127.929 204.373 176.472 256.709 159.519C312.346 141.491 371.657 95.5628 335.064 114.845C324.668 120.327 275.409 128.601 281.847 113.337M187.167 180.161C234.32 144.449 134.457 193.738 172.41 147.899C189.541 127.197 198.339 178.727 252.512 161.252C308.627 143.149 369.97 96.2946 334.646 117.175C324.31 123.284 273.243 132.141 281.145 116.234M190.079 180.594C238.069 143.224 130.2 195.65 167.526 147.914C184.284 126.48 192.26 180.997 248.3 162.984C304.878 144.792 368.312 97.0862 334.227 119.505C323.951 126.256 271.078 135.666 280.443 119.132M192.992 181.027C241.818 141.984 125.959 197.576 162.657 147.929C179.041 125.764 186.211 183.268 244.103 164.717C301.144 146.45 366.699 97.9227 333.809 121.82C323.623 129.229 268.912 139.191 279.741 122.015M195.904 181.46C245.567 140.744 121.717 199.488 157.787 147.944C173.799 125.047 180.162 185.523 239.906 166.449C297.41 148.093 365.13 98.789 333.406 124.15C323.309 132.231 266.761 142.716 279.054 124.897M198.832 181.878C249.346 139.49 117.505 201.4 152.918 147.944C168.571 124.315 174.098 187.778 235.694 168.167C293.661 149.721 363.577 99.6702 332.988 126.466C322.996 135.218 264.58 146.241 278.352 127.78M201.744 182.312C253.095 138.25 113.293 203.342 148.049 147.959C163.344 123.598 168.048 190.034 231.497 169.9C289.927 151.364 362.083 100.581 332.57 128.781C322.697 138.22 262.415 149.751 277.65 130.663M276.948 133.545C260.249 153.261 322.413 141.237 332.151 131.096C360.62 101.477 286.178 152.992 227.285 171.617C161.984 192.274 158.101 122.866 143.165 147.959C109.066 205.253 256.829 137.01 204.642 182.73M276.231 136.443C258.068 156.801 322.129 144.254 331.718 133.426C359.186 102.403 282.429 154.635 223.058 173.35C155.905 194.529 152.858 122.149 138.281 147.959C104.839 207.165 260.578 135.756 207.539 183.148M275.514 139.311C255.888 160.311 321.86 147.272 331.285 135.726C357.782 103.3 278.665 156.263 218.846 175.068C149.826 196.77 147.631 121.417 133.397 147.959C100.642 209.092 264.312 134.501 210.452 183.566M274.812 142.193C253.722 163.821 321.621 150.289 330.882 138.041C356.452 104.211 274.931 157.891 214.649 176.785C143.777 198.995 142.418 120.685 128.528 147.959C96.4448 211.004 268.075 133.247 213.365 183.984M274.11 145.061C251.556 167.331 321.397 153.291 330.464 140.341C355.138 105.092 271.197 159.504 210.452 178.503C137.728 201.236 137.205 119.953 123.673 147.959C92.2776 212.916 271.839 132.007 216.292 184.403M273.423 147.944C249.405 170.841 321.203 156.308 330.06 142.656C353.853 105.958 267.463 161.132 206.255 180.221C131.679 203.461 131.993 119.207 118.804 147.959C88.1104 214.827 275.603 130.752 219.22 184.821M272.736 150.826C247.255 174.366 321.024 159.325 329.657 144.986C352.614 106.84 263.744 162.79 202.058 181.953C125.615 205.716 126.78 118.49 113.935 147.974C83.9433 216.769 279.352 129.513 222.132 185.254M272.034 153.709C245.089 177.891 320.83 162.342 329.239 147.301C351.374 107.691 259.995 164.418 197.861 183.686C119.566 207.957 121.582 117.773 109.066 147.974C79.7761 218.681 283.116 128.258 225.045 185.672M271.332 156.592C242.908 181.4 320.651 165.359 328.821 149.616C350.164 108.512 256.246 166.046 193.649 185.403C113.487 210.197 116.37 117.041 104.197 147.974C75.6239 220.578 286.865 127.003 227.957 186.09M270.63 159.474C240.742 184.925 320.471 168.361 328.402 151.932C348.954 109.334 252.512 167.674 189.437 187.121C107.423 212.423 111.157 116.309 99.3125 147.974C71.4567 222.49 290.614 125.764 230.87 186.509M269.928 162.342C238.577 188.435 320.307 171.349 327.984 154.232C347.774 110.096 248.763 169.287 185.24 188.839C101.374 214.648 105.959 115.562 94.4434 147.974C67.3045 224.402 294.363 124.509 233.782 186.942M269.226 165.24C236.411 191.96 320.143 174.366 327.566 156.562C346.609 110.887 245.014 170.93 181.028 190.571C95.2947 216.889 100.746 114.845 89.5742 147.988C63.1672 226.313 298.127 123.269 236.695 187.375M268.524 168.137C234.245 195.5 319.993 177.368 327.148 158.892C345.459 111.664 241.28 172.573 176.831 192.304C89.2456 219.129 95.5486 114.113 84.705 148.003C59.0299 228.24 301.876 122.03 239.622 187.808M267.836 171.02C232.094 199.01 319.859 180.355 326.744 161.207C344.324 112.396 237.546 174.201 172.634 194.036C83.1815 221.37 90.3509 113.396 79.8358 148.018C54.8926 230.152 305.64 120.805 242.535 188.241M267.134 173.918C229.929 202.55 319.71 183.357 326.326 163.552C343.189 113.143 233.767 175.725 168.422 195.784C77.0577 223.431 85.1382 112.68 74.9517 148.033C50.7403 232.064 309.374 119.565 245.432 188.674M266.418 176.8C227.748 206.075 319.545 186.329 325.893 165.867C342.039 113.845 230.018 177.383 164.21 197.502C70.8742 225.731 79.8209 111.978 69.9631 148.078C46.4985 234.005 313.018 118.355 248.225 189.137M265.596 179.728C225.463 209.63 319.276 189.347 325.355 168.227C340.799 114.576 226.15 179.07 159.878 199.279C64.8251 227.986 74.6232 111.246 65.0939 148.093C42.3612 235.917 316.767 117.116 251.153 189.571M264.909 182.625C223.297 213.17 319.157 192.334 324.952 170.557C339.679 115.263 222.431 180.728 155.681 201.012C58.761 230.256 69.4254 110.514 60.2098 148.108C38.2239 237.829 320.516 115.876 254.05 190.004M256.963 190.437C324.265 114.636 34.1015 239.711 55.3407 148.108C64.2276 109.782 52.697 232.512 151.469 202.729C218.682 182.371 338.559 115.906 324.519 172.857C318.993 195.276 221.116 216.665 264.192 185.493M259.876 190.84C328.014 113.396 30.0688 241.638 50.4565 148.123C59.0597 109.05 46.6329 234.767 147.257 204.462C214.933 184.029 337.439 116.563 324.101 175.187C318.858 198.248 218.951 220.204 263.49 188.391M262.788 191.273C331.763 112.142 25.8419 243.505 45.5874 148.123C53.8321 108.303 40.5838 237.023 143.06 206.179C211.214 185.672 336.333 117.19 323.683 177.502C318.709 201.206 216.785 223.714 262.788 191.273Z" stroke="url(#paint1_linear_610_8627)" stroke-opacity="0.85" stroke-width="0.0746805" stroke-miterlimit="10"/>
<g clip-path="url(#clip1_610_8627)">
<path d="M43.5696 30.1526C37.7175 30.1526 32.9941 34.977 32.9941 40.9543C32.9941 46.9316 37.7175 51.756 43.5696 51.756C49.4216 51.756 54.145 46.9316 54.145 40.9543C54.145 34.977 49.4043 30.1526 43.5696 30.1526ZM47.0079 46.7719L40.357 49.5566C39.4019 49.9468 38.4295 49.1309 38.4295 47.9426V36.3072C38.4295 35.3672 39.072 34.6045 39.8708 34.6045L46.5043 35.243C47.3031 35.243 47.9456 36.0057 47.9456 36.9458V45.1579C47.9629 45.8851 47.5809 46.5059 47.0079 46.7719Z" fill="#E3EFFF"/>
<path d="M70.5554 36.1653C69.7739 35.1189 68.5931 34.6045 66.9955 34.6045C65.2937 34.6045 64.0608 35.243 63.3141 36.5023V34.9415H60.2578V49.663H63.3141V43.8808C64.0955 45.1579 65.3111 45.7787 66.9955 45.7964C68.5757 45.7964 69.7566 45.2643 70.5554 44.2178C71.3542 43.1713 71.7362 41.8411 71.7362 40.2093C71.7362 38.5775 71.3542 37.2295 70.5554 36.1831V36.1653ZM68.0722 42.6038C67.6554 43.1004 66.9955 43.3487 66.0404 43.3487C65.0853 43.3487 64.3907 43.1004 63.9566 42.586C63.5225 42.0717 63.2967 41.2735 63.2967 40.2093C63.2967 39.1451 63.5225 38.3469 63.9566 37.8326C64.3907 37.3182 65.0853 37.0699 66.0404 37.0699C66.9955 37.0699 67.6554 37.3182 68.0722 37.8148C68.4889 38.3115 68.6799 39.1274 68.6799 40.227C68.6799 41.3267 68.4716 42.1249 68.0722 42.6392V42.6038Z" fill="#E3EFFF"/>
<path d="M80.0365 43.2602C79.6545 43.5085 79.1509 43.6326 78.5084 43.6326C77.7443 43.6326 77.1365 43.4375 76.685 43.0296C76.2335 42.6216 75.9731 41.9476 75.8862 40.9898H83.7179C83.7527 40.8302 83.77 40.5642 83.77 40.1562C83.77 38.5422 83.3359 37.2119 82.4676 36.1654C81.5994 35.119 80.2623 34.6046 78.4389 34.6046C77.2234 34.6046 76.1988 34.8529 75.3653 35.3318C74.5317 35.8285 73.9066 36.5024 73.5072 37.3361C73.0904 38.1697 72.8994 39.1275 72.8994 40.174C72.8994 41.8057 73.3509 43.1537 74.2539 44.2002C75.1569 45.2467 76.5461 45.7788 78.4216 45.7788C80.106 45.7788 81.3736 45.4418 82.2245 44.7678C83.0754 44.0938 83.579 43.2602 83.7353 42.2669H80.818C80.679 42.6926 80.4012 43.0296 80.0191 43.2602H80.0365ZM76.7371 37.2474C77.1539 36.8749 77.7443 36.6976 78.491 36.6976C79.2377 36.6976 79.8108 36.8927 80.2102 37.3006C80.5922 37.6908 80.8179 38.2939 80.8874 39.092H75.9383C76.0599 38.2229 76.3204 37.6021 76.7545 37.2474H76.7371Z" fill="#E3EFFF"/>
<path d="M88.146 43.3131C88.5454 43.6501 89.1011 43.8098 89.8651 43.8098C91.0981 43.8098 91.7232 43.4018 91.7232 42.5859C91.7232 42.2312 91.619 41.9652 91.4106 41.7523C91.2023 41.5572 90.8202 41.4153 90.2819 41.3444L87.9897 41.0428C87.0172 40.9187 86.2705 40.5994 85.7669 40.0673C85.2634 39.553 85.0029 38.8435 85.0029 37.9744C85.0029 36.8392 85.4196 35.9879 86.2705 35.4025C87.1214 34.835 88.2502 34.5334 89.6741 34.5334C91.0981 34.5334 92.2442 34.8172 93.0951 35.4025C93.946 35.9701 94.4148 36.8215 94.519 37.9744H91.7059C91.6538 37.531 91.4627 37.1762 91.1154 36.9102C90.7681 36.6441 90.2993 36.52 89.6915 36.52C89.0837 36.52 88.5975 36.6264 88.3023 36.8392C87.9897 37.0521 87.8508 37.3359 87.8508 37.7083C87.8508 38.0099 87.9376 38.2404 88.146 38.4355C88.337 38.6129 88.6669 38.7371 89.1532 38.7903L91.3065 39.0386C92.5047 39.1982 93.3555 39.5352 93.8939 40.0673C94.4148 40.5994 94.6927 41.3444 94.6927 42.3022C94.6927 44.6257 93.0777 45.7963 89.8651 45.7963C88.146 45.7963 86.8783 45.4416 86.0448 44.7321C85.2113 44.0226 84.7945 43.118 84.7598 42.0361H87.5382C87.5556 42.5682 87.7813 42.9939 88.1807 43.3309L88.146 43.3131Z" fill="#E3EFFF"/>
<path d="M105.738 42.7279V38.1873C105.738 37.0522 105.339 36.1831 104.558 35.5445C103.759 34.906 102.613 34.6045 101.085 34.6045C99.5564 34.6045 98.3235 34.9592 97.4379 35.6332C96.5522 36.325 96.0834 37.2473 96.066 38.3824H99.0355C99.1049 37.3005 99.8169 36.7329 101.137 36.7329C101.797 36.7329 102.248 36.8216 102.526 37.0522C102.804 37.2473 102.925 37.5488 102.925 37.9567C102.925 38.276 102.838 38.4888 102.647 38.6485C102.456 38.8081 102.126 38.9323 101.658 39.0032L99.2612 39.4289C98.0109 39.6595 97.1253 40.0319 96.6217 40.5463C96.1181 41.0607 95.875 41.7701 95.875 42.6747C95.875 43.6148 96.1876 44.3597 96.8127 44.9096C97.4379 45.4594 98.2714 45.7432 99.2959 45.7432C100.303 45.7432 101.137 45.5126 101.779 45.0514C102.422 44.5903 102.873 43.9695 103.116 43.2068C103.116 43.8986 103.168 44.6435 103.255 45.4594H105.912C105.825 44.6258 105.773 43.7035 105.773 42.7279H105.738ZM102.908 40.4576C102.908 41.4331 102.665 42.2136 102.196 42.7634C101.727 43.331 101.102 43.597 100.286 43.597C99.8516 43.597 99.5043 43.4906 99.2265 43.2778C98.966 43.0472 98.8271 42.7457 98.8097 42.3377C98.8097 41.9475 98.9313 41.646 99.157 41.4154C99.4001 41.1848 99.7822 41.0075 100.338 40.8656L101.206 40.6527C101.588 40.564 101.918 40.4754 102.161 40.3689C102.404 40.2803 102.647 40.1384 102.891 39.9787V40.4399L102.908 40.4576Z" fill="#E3EFFF"/>
</g>
<g clip-path="url(#clip2_610_8627)">
<path fill-rule="evenodd" clip-rule="evenodd" d="M366.413 238.305C364.354 239.958 361.881 240.986 359.277 241.271C356.674 241.557 354.044 241.088 351.688 239.919C349.333 238.75 347.347 236.927 345.957 234.66C344.568 232.393 343.831 229.772 343.831 227.097C343.831 224.422 344.568 221.801 345.957 219.534C347.347 217.266 349.333 215.444 351.688 214.275C354.044 213.106 356.674 212.637 359.277 212.923C361.881 213.208 364.354 214.236 366.413 215.889C368.472 214.236 370.944 213.208 373.548 212.923C376.152 212.637 378.782 213.106 381.137 214.275C383.493 215.444 385.479 217.266 386.868 219.534C388.257 221.801 388.994 224.422 388.994 227.097C388.994 229.772 388.257 232.393 386.868 234.66C385.479 236.927 383.493 238.75 381.137 239.919C378.782 241.088 376.152 241.556 373.548 241.271C370.944 240.986 368.472 239.958 366.413 238.305ZM361.082 227.097C361.08 224.938 361.559 222.807 362.483 220.865C363.406 218.924 364.75 217.222 366.413 215.889C368.074 217.223 369.417 218.925 370.34 220.867C371.264 222.808 371.743 224.938 371.743 227.097C371.743 229.255 371.264 231.386 370.34 233.327C369.417 235.268 368.074 236.97 366.413 238.304C364.75 236.972 363.406 235.27 362.483 233.328C361.559 231.387 361.08 229.256 361.082 227.097ZM368.696 238.153C370.223 239.067 371.927 239.643 373.699 239.838C376.039 240.094 378.403 239.673 380.52 238.622C382.638 237.571 384.423 235.933 385.672 233.895C386.92 231.857 387.583 229.501 387.583 227.097C387.583 224.693 386.92 222.337 385.672 220.299C384.423 218.26 382.638 216.622 380.52 215.571C378.403 214.521 376.039 214.099 373.699 214.356C371.927 214.55 370.223 215.127 368.696 216.04C369.884 217.263 370.869 218.68 371.61 220.237C372.626 222.375 373.155 224.72 373.155 227.097C373.155 229.474 372.626 231.819 371.61 233.957C370.869 235.514 369.884 236.931 368.696 238.153Z" fill="#E3EFFF"/>
<path d="M387.663 235.471V235.93H387.564V235.471H387.383V235.378H387.844V235.471H387.663Z" fill="#E3EFFF"/>
<path d="M388.559 235.377V235.93H388.459V235.512L388.306 235.872H388.203L388.05 235.513V235.93H387.95V235.377H388.092L388.254 235.757L388.417 235.377H388.559Z" fill="#E3EFFF"/>
</g>
<path d="M37.4511 240.555C36.543 240.555 35.7902 240.375 35.1927 240.017C34.5953 239.659 34.1532 239.165 33.8664 238.535C33.5796 237.906 33.4362 237.185 33.4362 236.373C33.4362 235.568 33.5796 234.851 33.8664 234.222C34.1611 233.592 34.6112 233.099 35.2166 232.74C35.83 232.374 36.5868 232.19 37.4869 232.19C38.7137 232.19 39.6298 232.461 40.2352 233.003C40.8406 233.545 41.1911 234.329 41.2867 235.357H40.032C39.9524 234.656 39.7054 234.122 39.2912 233.756C38.877 233.389 38.2676 233.206 37.463 233.206C36.531 233.206 35.842 233.473 35.3959 234.007C34.9498 234.532 34.7267 235.321 34.7267 236.373C34.7267 237.424 34.9418 238.217 35.372 238.75C35.8101 239.276 36.4952 239.539 37.4272 239.539C38.2636 239.539 38.8969 239.344 39.327 238.954C39.7572 238.555 40.0002 237.99 40.0559 237.257H41.3225C41.1791 239.455 39.8886 240.555 37.4511 240.555ZM42.5355 231.987H43.7304V235.715C44.1446 234.696 44.8655 234.186 45.8931 234.186C46.6658 234.186 47.2195 234.389 47.554 234.795C47.8966 235.202 48.0678 235.811 48.0678 236.624V240.352H46.8729V236.731C46.8729 236.15 46.7574 235.747 46.5264 235.524C46.2954 235.293 45.9688 235.178 45.5466 235.178C44.9412 235.178 44.4872 235.389 44.1845 235.811C43.8817 236.233 43.7304 236.906 43.7304 237.83V240.352H42.5355V231.987ZM51.6979 240.543C50.9252 240.543 50.3596 240.34 50.0011 239.933C49.6506 239.519 49.4754 238.91 49.4754 238.105V234.377H50.6703V237.998C50.6703 238.579 50.7898 238.985 51.0287 239.216C51.2757 239.439 51.6222 239.551 52.0683 239.551C52.61 239.551 53.0361 239.328 53.3468 238.882C53.6575 238.428 53.8128 237.767 53.8128 236.898V234.377H55.0077V240.352H53.8128V239.049C53.4145 240.045 52.7095 240.543 51.6979 240.543ZM58.9845 237.615L57.8613 238.679V240.352H56.6665V231.987H57.8613V237.352C58.0764 237.082 58.2796 236.859 58.4707 236.683L60.8964 234.377H62.3541V234.413L59.7493 236.886L62.5812 240.352H61.0875L58.9845 237.615ZM63.8587 238.356C63.8826 238.746 64.034 239.061 64.3128 239.3C64.5916 239.539 65.0058 239.659 65.5555 239.659C66.0573 239.659 66.4039 239.583 66.595 239.431C66.7862 239.272 66.8818 239.041 66.8818 238.738C66.8818 238.492 66.8061 238.3 66.6548 238.165C66.5114 238.022 66.2844 237.926 65.9737 237.878L64.492 237.651C63.9743 237.571 63.576 237.392 63.2972 237.113C63.0263 236.835 62.8909 236.468 62.8909 236.014C62.8909 235.441 63.11 234.99 63.5481 234.664C63.9862 234.337 64.5956 234.174 65.3763 234.174C66.133 234.174 66.7424 234.349 67.2044 234.7C67.6665 235.042 67.9174 235.5 67.9572 236.074H66.7623C66.7305 235.779 66.595 235.536 66.3561 235.345C66.1171 235.154 65.7785 235.058 65.3404 235.058C64.9023 235.058 64.5757 235.138 64.3606 235.297C64.1535 235.449 64.0499 235.652 64.0499 235.907C64.0499 236.106 64.1097 236.269 64.2292 236.396C64.3566 236.524 64.5717 236.612 64.8744 236.659L66.1649 236.851C66.8659 236.954 67.3558 237.161 67.6346 237.472C67.9134 237.775 68.0528 238.177 68.0528 238.679C68.0528 239.3 67.8457 239.766 67.4315 240.077C67.0172 240.387 66.38 240.543 65.5196 240.543C64.5797 240.543 63.8826 240.344 63.4286 239.945C62.9745 239.539 62.7475 239.009 62.7475 238.356H63.8587ZM75.7445 240.555C74.8842 240.555 74.1633 240.375 73.5818 240.017C73.0082 239.659 72.5821 239.165 72.3032 238.535C72.0244 237.906 71.885 237.185 71.885 236.373C71.885 235.56 72.0324 234.843 72.3271 234.222C72.6219 233.592 73.072 233.099 73.6774 232.74C74.2907 232.374 75.0515 232.19 75.9596 232.19C77.1625 232.19 78.0746 232.445 78.6959 232.955C79.3252 233.465 79.6956 234.214 79.8071 235.202H78.5286C78.441 234.524 78.1901 234.023 77.7758 233.696C77.3616 233.369 76.7403 233.206 75.9118 233.206C74.9639 233.206 74.2708 233.473 73.8327 234.007C73.3946 234.532 73.1755 235.321 73.1755 236.373C73.1755 237.424 73.3906 238.217 73.8208 238.75C74.2589 239.276 74.9599 239.539 75.9238 239.539C77.5169 239.539 78.4091 238.786 78.6003 237.281H75.2427V236.373H79.7952V240.352H78.6839V238.667C78.4928 239.256 78.1423 239.718 77.6324 240.053C77.1306 240.387 76.5013 240.555 75.7445 240.555ZM82.9594 240.507C82.346 240.507 81.8601 240.352 81.5016 240.041C81.1511 239.73 80.9759 239.3 80.9759 238.75C80.9759 238.257 81.1153 237.862 81.3941 237.567C81.6809 237.265 82.1469 237.058 82.7921 236.946L84.2857 236.695C84.5805 236.647 84.7916 236.572 84.919 236.468C85.0544 236.365 85.1221 236.209 85.1221 236.002C85.1221 235.707 85.0226 235.484 84.8234 235.333C84.6322 235.174 84.2937 235.094 83.8078 235.094C83.3219 235.094 82.9554 235.19 82.7085 235.381C82.4695 235.572 82.3341 235.859 82.3022 236.241H81.1073C81.1153 235.596 81.3503 235.09 81.8123 234.724C82.2743 234.357 82.9236 234.174 83.76 234.174C84.5645 234.174 85.1739 234.341 85.5882 234.676C86.0103 235.01 86.2214 235.46 86.2214 236.026V238.989C86.2214 239.428 86.2414 239.882 86.2812 240.352H85.1938C85.146 239.882 85.1221 239.431 85.1221 239.001C84.9867 239.431 84.7398 239.79 84.3813 240.077C84.0229 240.364 83.5489 240.507 82.9594 240.507ZM82.1708 238.703C82.1708 238.981 82.2624 239.2 82.4456 239.36C82.6368 239.511 82.8917 239.587 83.2103 239.587C83.8157 239.587 84.2857 239.388 84.6203 238.989C84.9549 238.583 85.1221 238.069 85.1221 237.448V237.09C84.9788 237.193 84.8234 237.277 84.6561 237.34C84.4889 237.396 84.2897 237.452 84.0587 237.508L83.2342 237.699C82.8598 237.787 82.589 237.91 82.4217 238.069C82.2544 238.221 82.1708 238.432 82.1708 238.703ZM95.9978 236.731C95.9978 236.181 95.8902 235.787 95.6752 235.548C95.4601 235.301 95.1454 235.178 94.7312 235.178C94.1656 235.178 93.7394 235.389 93.4527 235.811C93.1739 236.233 93.0345 236.906 93.0345 237.83V240.352H91.8635V236.731C91.8635 236.181 91.7559 235.787 91.5408 235.548C91.3258 235.301 91.0111 235.178 90.5969 235.178C90.0393 235.178 89.6171 235.389 89.3303 235.811C89.0435 236.233 88.9001 236.906 88.9001 237.83V240.352H87.7053V234.377H88.9001V235.68C89.2984 234.684 89.9994 234.186 91.0031 234.186C91.5528 234.186 91.9869 234.317 92.3056 234.58C92.6242 234.835 92.8393 235.218 92.9508 235.727C93.3491 234.7 94.078 234.186 95.1375 234.186C96.5076 234.186 97.1927 234.998 97.1927 236.624V240.352H95.9978V236.731ZM102.138 234.186C103.054 234.186 103.747 234.485 104.217 235.082C104.687 235.672 104.922 236.432 104.922 237.364C104.922 238.296 104.687 239.061 104.217 239.659C103.747 240.248 103.054 240.543 102.138 240.543C101.087 240.543 100.35 240.136 99.9275 239.324V240.352H98.7326V231.987H99.9275V235.405C100.35 234.592 101.087 234.186 102.138 234.186ZM99.9275 237.364C99.9275 238.846 100.581 239.587 101.887 239.587C102.54 239.587 103.006 239.408 103.285 239.049C103.572 238.683 103.715 238.121 103.715 237.364C103.715 236.608 103.572 236.05 103.285 235.691C103.006 235.325 102.54 235.142 101.887 235.142C100.581 235.142 99.9275 235.883 99.9275 237.364ZM107.872 240.507C107.259 240.507 106.773 240.352 106.415 240.041C106.064 239.73 105.889 239.3 105.889 238.75C105.889 238.257 106.028 237.862 106.307 237.567C106.594 237.265 107.06 237.058 107.705 236.946L109.199 236.695C109.493 236.647 109.705 236.572 109.832 236.468C109.967 236.365 110.035 236.209 110.035 236.002C110.035 235.707 109.936 235.484 109.736 235.333C109.545 235.174 109.207 235.094 108.721 235.094C108.235 235.094 107.868 235.19 107.621 235.381C107.382 235.572 107.247 235.859 107.215 236.241H106.02C106.028 235.596 106.263 235.09 106.725 234.724C107.187 234.357 107.837 234.174 108.673 234.174C109.477 234.174 110.087 234.341 110.501 234.676C110.923 235.01 111.134 235.46 111.134 236.026V238.989C111.134 239.428 111.154 239.882 111.194 240.352H110.107C110.059 239.882 110.035 239.431 110.035 239.001C109.9 239.431 109.653 239.79 109.294 240.077C108.936 240.364 108.462 240.507 107.872 240.507ZM107.084 238.703C107.084 238.981 107.175 239.2 107.359 239.36C107.55 239.511 107.805 239.587 108.123 239.587C108.729 239.587 109.199 239.388 109.533 238.989C109.868 238.583 110.035 238.069 110.035 237.448V237.09C109.892 237.193 109.736 237.277 109.569 237.34C109.402 237.396 109.203 237.452 108.972 237.508L108.147 237.699C107.773 237.787 107.502 237.91 107.335 238.069C107.167 238.221 107.084 238.432 107.084 238.703ZM115.212 239.36H117.996V232.406H119.227V238.595C119.227 239.208 119.084 239.655 118.797 239.933C118.518 240.212 118.028 240.352 117.327 240.352H115.212V239.36ZM122.878 240.543C122.105 240.543 121.539 240.34 121.181 239.933C120.83 239.519 120.655 238.91 120.655 238.105V234.377H121.85V237.998C121.85 238.579 121.97 238.985 122.209 239.216C122.456 239.439 122.802 239.551 123.248 239.551C123.79 239.551 124.216 239.328 124.527 238.882C124.837 238.428 124.993 237.767 124.993 236.898V234.377H126.188V240.352H124.993V239.049C124.594 240.045 123.889 240.543 122.878 240.543ZM130.224 234.186C131.276 234.186 132.012 234.592 132.435 235.405V231.987H133.63V240.352H132.435V239.324C132.012 240.136 131.276 240.543 130.224 240.543C129.308 240.543 128.615 240.248 128.145 239.659C127.675 239.061 127.44 238.296 127.44 237.364C127.44 236.432 127.675 235.672 128.145 235.082C128.615 234.485 129.308 234.186 130.224 234.186ZM128.647 237.364C128.647 238.121 128.786 238.683 129.065 239.049C129.352 239.408 129.822 239.587 130.475 239.587C131.781 239.587 132.435 238.846 132.435 237.364C132.435 235.883 131.781 235.142 130.475 235.142C129.822 235.142 129.352 235.325 129.065 235.691C128.786 236.05 128.647 236.608 128.647 237.364ZM137.896 240.543C136.884 240.543 136.127 240.248 135.625 239.659C135.123 239.069 134.873 238.3 134.873 237.352C134.873 236.755 134.984 236.217 135.207 235.739C135.43 235.261 135.769 234.883 136.223 234.604C136.677 234.325 137.234 234.186 137.896 234.186C138.509 234.186 139.031 234.321 139.461 234.592C139.899 234.855 140.226 235.218 140.441 235.68C140.664 236.142 140.775 236.663 140.775 237.245C140.775 237.444 140.767 237.595 140.751 237.699H136.044C136.091 238.408 136.279 238.914 136.605 239.216C136.932 239.511 137.374 239.659 137.931 239.659C138.887 239.659 139.465 239.288 139.664 238.547H140.763C140.692 239.073 140.429 239.539 139.975 239.945C139.529 240.344 138.836 240.543 137.896 240.543ZM139.628 236.827C139.572 235.656 138.999 235.07 137.908 235.07C137.366 235.07 136.94 235.206 136.629 235.476C136.318 235.739 136.127 236.189 136.055 236.827H139.628Z" fill="#E3EFFF"/>
<path d="M34.4997 134.472L37.2718 136.647L36.7939 133.134H38.2994L37.8215 136.647L40.5936 134.472L41.3584 135.787L38.1083 137.101L41.3823 138.439L40.5936 139.777L37.8215 137.579L38.2994 141.092H36.7939L37.2718 137.579L34.4997 139.777L33.735 138.439L36.9851 137.125L33.7111 135.787L34.4997 134.472ZM43.6014 134.472L46.3735 136.647L45.8956 133.134H47.4011L46.9232 136.647L49.6953 134.472L50.46 135.787L47.2099 137.101L50.4839 138.439L49.6953 139.777L46.9232 137.579L47.4011 141.092H45.8956L46.3735 137.579L43.6014 139.777L42.8367 138.439L46.0868 137.125L42.8128 135.787L43.6014 134.472ZM52.7031 134.472L55.4752 136.647L54.9973 133.134H56.5028L56.0249 136.647L58.797 134.472L59.5617 135.787L56.3116 137.101L59.5856 138.439L58.797 139.777L56.0249 137.579L56.5028 141.092H54.9973L55.4752 137.579L52.7031 139.777L51.9383 138.439L55.1884 137.125L51.9144 135.787L52.7031 134.472ZM61.8048 134.472L64.5769 136.647L64.0989 133.134H65.6045L65.1265 136.647L67.8987 134.472L68.6634 135.787L65.4133 137.101L68.6873 138.439L67.8987 139.777L65.1265 137.579L65.6045 141.092H64.0989L64.5769 137.579L61.8048 139.777L61.04 138.439L64.2901 137.125L61.0161 135.787L61.8048 134.472ZM76.7875 134.472L79.5597 136.647L79.0817 133.134H80.5873L80.1093 136.647L82.8815 134.472L83.6462 135.787L80.3961 137.101L83.6701 138.439L82.8815 139.777L80.1093 137.579L80.5873 141.092H79.0817L79.5597 137.579L76.7875 139.777L76.0228 138.439L79.2729 137.125L75.9989 135.787L76.7875 134.472ZM85.8892 134.472L88.6614 136.647L88.1834 133.134H89.689L89.211 136.647L91.9831 134.472L92.7479 135.787L89.4978 137.101L92.7718 138.439L91.9831 139.777L89.211 137.579L89.689 141.092H88.1834L88.6614 137.579L85.8892 139.777L85.1245 138.439L88.3746 137.125L85.1006 135.787L85.8892 134.472ZM94.9909 134.472L97.763 136.647L97.2851 133.134H98.7906L98.3127 136.647L101.085 134.472L101.85 135.787L98.5995 137.101L101.873 138.439L101.085 139.777L98.3127 137.579L98.7906 141.092H97.2851L97.763 137.579L94.9909 139.777L94.2262 138.439L97.4763 137.125L94.2023 135.787L94.9909 134.472ZM104.093 134.472L106.865 136.647L106.387 133.134H107.892L107.414 136.647L110.187 134.472L110.951 135.787L107.701 137.101L110.975 138.439L110.187 139.777L107.414 137.579L107.892 141.092H106.387L106.865 137.579L104.093 139.777L103.328 138.439L106.578 137.125L103.304 135.787L104.093 134.472ZM119.075 134.472L121.847 136.647L121.37 133.134H122.875L122.397 136.647L125.169 134.472L125.934 135.787L122.684 137.101L125.958 138.439L125.169 139.777L122.397 137.579L122.875 141.092H121.37L121.847 137.579L119.075 139.777L118.311 138.439L121.561 137.125L118.287 135.787L119.075 134.472ZM128.177 134.472L130.949 136.647L130.471 133.134H131.977L131.499 136.647L134.271 134.472L135.036 135.787L131.786 137.101L135.06 138.439L134.271 139.777L131.499 137.579L131.977 141.092H130.471L130.949 137.579L128.177 139.777L127.412 138.439L130.662 137.125L127.388 135.787L128.177 134.472ZM137.279 134.472L140.051 136.647L139.573 133.134H141.078L140.601 136.647L143.373 134.472L144.137 135.787L140.887 137.101L144.161 138.439L143.373 139.777L140.601 137.579L141.078 141.092H139.573L140.051 137.579L137.279 139.777L136.514 138.439L139.764 137.125L136.49 135.787L137.279 134.472ZM146.38 134.472L149.153 136.647L148.675 133.134H150.18L149.702 136.647L152.474 134.472L153.239 135.787L149.989 137.101L153.263 138.439L152.474 139.777L149.702 137.579L150.18 141.092H148.675L149.153 137.579L146.38 139.777L145.616 138.439L148.866 137.125L145.592 135.787L146.38 134.472ZM161.459 147.042L169.584 140.47C170.253 139.929 170.707 139.427 170.946 138.965C171.201 138.503 171.329 137.961 171.329 137.34C171.329 136.559 171.074 135.93 170.564 135.452C170.07 134.974 169.297 134.735 168.246 134.735C166.764 134.735 165.681 135.157 164.996 136.002C164.327 136.83 163.992 137.985 163.992 139.467H161.411C161.443 137.603 161.977 136.01 163.012 134.687C164.048 133.365 165.792 132.704 168.246 132.704C170.221 132.704 171.655 133.142 172.547 134.018C173.455 134.894 173.91 135.994 173.91 137.316C173.91 138.352 173.599 139.307 172.977 140.184C172.356 141.06 171.313 142.072 169.847 143.219L164.996 147.042H174.196V149.026H161.459V147.042ZM183.578 145.202H174.999V143.219L182.216 133.134H186.04V143.219H188.692V145.202H186.04V149.026H183.578V145.202ZM183.578 143.219V134.663L177.46 143.219H183.578ZM202.978 135.117H193.825L193.491 140.016C194.51 138.933 196 138.391 197.96 138.391C199.664 138.391 201.034 138.861 202.07 139.801C203.106 140.725 203.623 142.064 203.623 143.816C203.623 145.505 203.082 146.867 201.998 147.903C200.915 148.922 199.258 149.432 197.028 149.432C194.941 149.432 193.355 148.986 192.272 148.094C191.205 147.202 190.631 146.007 190.551 144.509H193.084C193.148 145.37 193.499 146.071 194.136 146.612C194.773 147.138 195.737 147.401 197.028 147.401C198.366 147.401 199.37 147.098 200.039 146.493C200.708 145.887 201.042 145.011 201.042 143.864C201.042 142.637 200.724 141.713 200.087 141.092C199.449 140.455 198.565 140.136 197.434 140.136C195.745 140.136 194.415 140.781 193.443 142.072H191.149L191.698 133.134H202.978V135.117ZM206.266 147.042H209.922V135.117H206.314V133.134H209.731C210.671 133.134 211.348 133.333 211.762 133.731C212.177 134.13 212.384 134.703 212.384 135.452V147.042H215.729V149.026H206.266V147.042Z" fill="#E3EFFF"/>
<path d="M349.218 38.3079C348.294 38.1964 347.617 37.8857 347.187 37.3759C346.757 36.8581 346.542 36.2288 346.542 35.488H347.737C347.753 36.1014 347.94 36.5714 348.298 36.898C348.665 37.2246 349.202 37.3879 349.911 37.3879C350.604 37.3879 351.086 37.2724 351.357 37.0413C351.636 36.8103 351.775 36.4718 351.775 36.0257C351.775 35.6593 351.664 35.3725 351.441 35.1654C351.226 34.9583 350.891 34.8189 350.437 34.7472L348.836 34.4843C348.151 34.3728 347.637 34.1417 347.295 33.7912C346.952 33.4407 346.781 32.9588 346.781 32.3454C346.781 31.7241 346.988 31.2023 347.402 30.7801C347.824 30.3579 348.43 30.103 349.218 30.0154V28.713H350.413V30.0274C351.21 30.1309 351.815 30.4097 352.229 30.8638C352.652 31.3099 352.887 31.8675 352.934 32.5366H351.739C351.676 32.0427 351.477 31.6564 351.142 31.3776C350.815 31.0908 350.353 30.9474 349.756 30.9474C349.19 30.9474 348.76 31.0709 348.465 31.3178C348.171 31.5648 348.023 31.8954 348.023 32.3096C348.023 32.6123 348.111 32.8632 348.286 33.0624C348.462 33.2535 348.728 33.377 349.087 33.4328L350.796 33.7196C351.52 33.839 352.07 34.0701 352.444 34.4126C352.827 34.7551 353.018 35.241 353.018 35.8704C353.018 37.3759 352.15 38.1924 350.413 38.3199V39.6462H349.218V38.3079ZM355.349 35.5836C355.365 36.1332 355.552 36.5634 355.91 36.8741C356.277 37.1847 356.755 37.3401 357.344 37.3401C357.966 37.3401 358.44 37.1967 358.766 36.9099C359.101 36.6152 359.268 36.1691 359.268 35.5716C359.268 35.1096 359.133 34.7432 358.862 34.4723C358.591 34.1935 358.201 34.0541 357.691 34.0541C357.396 34.0541 357.133 34.0979 356.902 34.1856C356.679 34.2652 356.452 34.3887 356.221 34.556L355.636 33.7793L358.635 31.1983H354.321V30.2066H360.093V31.1983L357.524 33.5045C357.747 33.4407 358.006 33.4089 358.3 33.4089C358.667 33.4089 359.021 33.4885 359.364 33.6479C359.714 33.7992 360.001 34.0422 360.224 34.3767C360.447 34.7033 360.559 35.1176 360.559 35.6194C360.559 36.0894 360.451 36.5315 360.236 36.9458C360.029 37.352 359.682 37.6906 359.196 37.9614C358.711 38.2243 358.077 38.3557 357.297 38.3557C356.261 38.3557 355.464 38.1048 354.907 37.6029C354.357 37.1011 354.074 36.428 354.058 35.5836H355.349ZM361.57 37.0055H362.98V38.9412C362.98 39.2599 362.892 39.4948 362.717 39.6462C362.542 39.7976 362.279 39.8732 361.928 39.8732H361.57V39.1802H362.251V38.1526H361.57V37.0055ZM367.669 38.3557C366.435 38.3557 365.515 37.9734 364.909 37.2086C364.304 36.4359 364.001 35.4243 364.001 34.1736C364.001 32.9309 364.304 31.9232 364.909 31.1505C365.515 30.3779 366.435 29.9915 367.669 29.9915C368.506 29.9915 369.195 30.1747 369.737 30.5412C370.286 30.9076 370.688 31.4055 370.943 32.0348C371.206 32.6641 371.338 33.377 371.338 34.1736C371.338 35.4243 371.035 36.4359 370.43 37.2086C369.824 37.9734 368.904 38.3557 367.669 38.3557ZM365.292 34.1736C365.292 35.241 365.479 36.0376 365.853 36.5634C366.228 37.0812 366.833 37.3401 367.669 37.3401C368.506 37.3401 369.111 37.0812 369.486 36.5634C369.86 36.0376 370.047 35.241 370.047 34.1736C370.047 33.1062 369.86 32.3136 369.486 31.7958C369.111 31.27 368.506 31.0072 367.669 31.0072C366.833 31.0072 366.228 31.27 365.853 31.7958C365.479 32.3136 365.292 33.1062 365.292 34.1736ZM376.199 38.3557C374.965 38.3557 374.045 37.9734 373.439 37.2086C372.834 36.4359 372.531 35.4243 372.531 34.1736C372.531 32.9309 372.834 31.9232 373.439 31.1505C374.045 30.3779 374.965 29.9915 376.199 29.9915C377.036 29.9915 377.725 30.1747 378.266 30.5412C378.816 30.9076 379.218 31.4055 379.473 32.0348C379.736 32.6641 379.868 33.377 379.868 34.1736C379.868 35.4243 379.565 36.4359 378.959 37.2086C378.354 37.9734 377.434 38.3557 376.199 38.3557ZM373.821 34.1736C373.821 35.241 374.009 36.0376 374.383 36.5634C374.757 37.0812 375.363 37.3401 376.199 37.3401C377.036 37.3401 377.641 37.0812 378.016 36.5634C378.39 36.0376 378.577 35.241 378.577 34.1736C378.577 33.1062 378.39 32.3136 378.016 31.7958C377.641 31.27 377.036 31.0072 376.199 31.0072C375.363 31.0072 374.757 31.27 374.383 31.7958C374.009 32.3136 373.821 33.1062 373.821 34.1736ZM384.729 38.3557C383.494 38.3557 382.574 37.9734 381.969 37.2086C381.364 36.4359 381.061 35.4243 381.061 34.1736C381.061 32.9309 381.364 31.9232 381.969 31.1505C382.574 30.3779 383.494 29.9915 384.729 29.9915C385.566 29.9915 386.255 30.1747 386.796 30.5412C387.346 30.9076 387.748 31.4055 388.003 32.0348C388.266 32.6641 388.398 33.377 388.398 34.1736C388.398 35.4243 388.095 36.4359 387.489 37.2086C386.884 37.9734 385.964 38.3557 384.729 38.3557ZM382.351 34.1736C382.351 35.241 382.539 36.0376 382.913 36.5634C383.287 37.0812 383.893 37.3401 384.729 37.3401C385.566 37.3401 386.171 37.0812 386.545 36.5634C386.92 36.0376 387.107 35.241 387.107 34.1736C387.107 33.1062 386.92 32.3136 386.545 31.7958C386.171 31.27 385.566 31.0072 384.729 31.0072C383.893 31.0072 383.287 31.27 382.913 31.7958C382.539 32.3136 382.351 33.1062 382.351 34.1736Z" fill="#E3EFFF"/>
</g>
<defs>
<linearGradient id="paint0_linear_610_8627" x1="416.765" y1="1.01086e-05" x2="-4.8868" y2="257.152" gradientUnits="userSpaceOnUse">
<stop stop-color="#111011"/>
<stop offset="1" stop-color="#121112"/>
</linearGradient>
<linearGradient id="paint1_linear_610_8627" x1="98.1624" y1="220.324" x2="301.592" y2="16.8794" gradientUnits="userSpaceOnUse">
<stop offset="0.01" stop-color="#006EFF"/>
<stop offset="0.06" stop-color="#046FFE"/>
<stop offset="0.12" stop-color="#1174FB"/>
<stop offset="0.18" stop-color="#287CF6"/>
<stop offset="0.23" stop-color="#4787EF"/>
<stop offset="0.29" stop-color="#6F95E6"/>
<stop offset="0.36" stop-color="#A0A7DB"/>
<stop offset="0.42" stop-color="#D9BBCF"/>
<stop offset="0.45" stop-color="#F7C6C9"/>
<stop offset="0.5" stop-color="#C9B5D2"/>
<stop offset="0.57" stop-color="#94A2DE"/>
<stop offset="0.65" stop-color="#6792E8"/>
<stop offset="0.72" stop-color="#4185F0"/>
<stop offset="0.79" stop-color="#257BF6"/>
<stop offset="0.86" stop-color="#1073FB"/>
<stop offset="0.93" stop-color="#046FFE"/>
<stop offset="1" stop-color="#006EFF"/>
</linearGradient>
<clipPath id="clip0_610_8627">
<rect width="421.367" height="271" fill="white"/>
</clipPath>
<clipPath id="clip1_610_8627">
<rect width="72.8991" height="21.5856" fill="white" transform="translate(32.9941 30.1526)"/>
</clipPath>
<clipPath id="clip2_610_8627">
<rect width="45.7747" height="28.8932" fill="white" transform="translate(343.831 212.841)"/>
</clipPath>
</defs>
</svg>
